# xmcd
#
# Track frame offsets: 
#        150
#        12350
#        25035
#        41778
#        55510
#        69818
#        82296
#        94990
#        113732
#        129274
#        143566
#        159063
#        173183
#        187268
#        200358
#        211995
#        227035
#        239775
#        255257
#        267962
#        283207
#        294407
#        306359
#        320241
#        329936
#        342983
#
# Disc length: 4750 seconds
#
# Revision: 0
# Processed by: cddbd v1.5.2PL0 Copyright (c) Steve Scherf et al.
# Submitted via: ExactAudioCopy v1.0b1
#
DISCID=88128c1a
DTITLE=Various Artist - A History Of The Blues, Part 1 [CD1]
DYEAR=2010
DGENRE=Blues
TTITLE0=Robert Johnson - Cross Road Blues
TTITLE1=Muddy Waters - (I'm Your) Hocchie Coochie Man
TTITLE2=John Lee Hooker - Good Mornin', Lil' School Girl
TTITLE3=Bo Diddley - I'm A Man
TTITLE4=Howlin' Wolf - Smokestack Lightning
TTITLE5=Little Walter - My Babe
TTITLE6=Muddy Waters - I Can't Be Satisfied
TTITLE7=Sonny Terry and Brownie McGhee - Midnight Special
TTITLE8=Memphis Slim - Sittin' And Cryin' The Blues
TTITLE9=Muddy Waters - Rollin' Stone
TTITLE10=John Lee Hooker - Tupelo Blues
TTITLE11=Big Bill Broonzy - Get Back
TTITLE12=Lowell Fulson - Tollin' Bells
TTITLE13=Muddy Waters - Forty Days And Forty Nights
TTITLE14=B.B. King - City Of New Orleans
TTITLE15=Memphis Slim - Youth To You
TTITLE16=Howlin' Wolf - Louise
TTITLE17=Sonny Terry - My Babe Done Gone
TTITLE18=Little Walter - Juke
TTITLE19=Big Bill Broonzy - John Henry
TTITLE20=Screamin' Jay Hawkins - I Put A Spell On You
TTITLE21=Howlin' Wolf - Poor Boy
TTITLE22=Muddy Waters - I'm Ready
TTITLE23=Memphis Slim - Don't You Tell Nobody
TTITLE24=Muddy Waters - I Just Want To Make Love With You
TTITLE25=Robert Johnson - Sweet Home Chicago
EXTD=
EXTT0=
EXTT1=
EXTT2=
EXTT3=
EXTT4=
EXTT5=
EXTT6=
EXTT7=
EXTT8=
EXTT9=
EXTT10=
EXTT11=
EXTT12=
EXTT13=
EXTT14=
EXTT15=
EXTT16=
EXTT17=
EXTT18=
EXTT19=
EXTT20=
EXTT21=
EXTT22=
EXTT23=
EXTT24=
EXTT25=
PLAYORDER=
